<svg xmlns="http://www.w3.org/2000/svg" viewBox="0 0 360 360" width="360" height="360" role="img" aria-label="gemini:gemini-3.5-flash-lite__p1-plain">
<style>
  :root { --surface-1: #fcfcfb; --text-primary: #0b0b0b; --text-secondary: #52514e; --grid: #e4e3df; --series-1: #2a78d6; }
  @media (prefers-color-scheme: dark) { :root { --surface-1: #1a1a19; --text-primary: #ffffff; --text-secondary: #c3c2b7; --grid: #3a3a37; --series-1: #3987e5; } }
  text { font: 11px system-ui, sans-serif; fill: var(--text-secondary); }
  .title { font-size: 13px; font-weight: 600; fill: var(--text-primary); }
</style>
<rect width="360" height="360" fill="var(--surface-1)"/>
<text class="title" x="52" y="22">gemini:gemini-3.5-flash-lite__p1-plain</text>
<line x1="52" x2="344" y1="312" y2="312" stroke="var(--grid)" stroke-width="1"/><text x="44" y="316" text-anchor="end">0</text><text x="52" y="328" text-anchor="middle">0</text>
<line x1="52" x2="344" y1="244" y2="244" stroke="var(--grid)" stroke-width="1"/><text x="44" y="248" text-anchor="end">0.25</text><text x="125" y="328" text-anchor="middle">0.25</text>
<line x1="52" x2="344" y1="176" y2="176" stroke="var(--grid)" stroke-width="1"/><text x="44" y="180" text-anchor="end">0.5</text><text x="198" y="328" text-anchor="middle">0.5</text>
<line x1="52" x2="344" y1="108" y2="108" stroke="var(--grid)" stroke-width="1"/><text x="44" y="112" text-anchor="end">0.75</text><text x="271" y="328" text-anchor="middle">0.75</text>
<line x1="52" x2="344" y1="40" y2="40" stroke="var(--grid)" stroke-width="1"/><text x="44" y="44" text-anchor="end">1</text><text x="344" y="328" text-anchor="middle">1</text>
<line x1="52" y1="312" x2="344" y2="40" stroke="var(--text-secondary)" stroke-width="1" opacity="0.6"/>
<text x="233.04" y="121.60000000000001" transform="rotate(-45 233.04 121.60000000000001)">perfectly calibrated</text>
<polyline fill="none" stroke="var(--series-1)" stroke-width="2" points="66.2496,296.0064 89.49279999999999,270.0576 113.32,203.2 241.8,251.5616 271,237.2 299.7912,267.664 329.6044,159.67999999999998"/>
<circle cx="66.2496" cy="296.0064" r="8.9" fill="var(--series-1)" stroke="var(--surface-1)" stroke-width="2"><title>stated 0.0–0.1: 272 edits, mean stated 0.0488, reverted 5.9% [3.6, 9.3]</title></circle>
<circle cx="89.49279999999999" cy="270.0576" r="10.0" fill="var(--series-1)" stroke="var(--surface-1)" stroke-width="2"><title>stated 0.1–0.2: 415 edits, mean stated 0.1284, reverted 15.4% [12.3, 19.2]</title></circle>
<circle cx="113.32" cy="203.2" r="4.7" fill="var(--series-1)" stroke="var(--surface-1)" stroke-width="2"><title>stated 0.2–0.3: 5 edits, mean stated 0.21, reverted 40.0% [11.8, 76.9]</title></circle>
<circle cx="241.8" cy="251.5616" r="4.9" fill="var(--series-1)" stroke="var(--surface-1)" stroke-width="2"><title>stated 0.6–0.7: 9 edits, mean stated 0.65, reverted 22.2% [6.3, 54.7]</title></circle>
<circle cx="271" cy="237.2" r="5.9" fill="var(--series-1)" stroke="var(--surface-1)" stroke-width="2"><title>stated 0.7–0.8: 40 edits, mean stated 0.75, reverted 27.5% [16.1, 42.8]</title></circle>
<circle cx="299.7912" cy="267.664" r="8.0" fill="var(--series-1)" stroke="var(--surface-1)" stroke-width="2"><title>stated 0.8–0.9: 184 edits, mean stated 0.8486, reverted 16.3% [11.7, 22.3]</title></circle>
<circle cx="329.6044" cy="159.67999999999998" r="6.6" fill="var(--series-1)" stroke="var(--surface-1)" stroke-width="2"><title>stated 0.9–1.0: 75 edits, mean stated 0.9507, reverted 56.0% [44.8, 66.7]</title></circle>
<text x="198" y="350" text-anchor="middle">stated probability of revert (marker area = edits)</text>
<text x="14" y="176" text-anchor="middle" transform="rotate(-90 14 176)">share actually reverted</text>
</svg>
